<?xml version="1.0" encoding="utf-8"?><svg xmlns="http://www.w3.org/2000/svg" xmlns:xlink="http://www.w3.org/1999/xlink" width="1366" height="625" preserveAspectRatio="xMidYMid" viewBox="0 0 1366 625" style="z-index:1;margin-right:-2px;display:block;background-repeat-y:initial;background-repeat-x:initial;background-color:rgb(255, 255, 255);animation-play-state:paused" ><g transform="" style="animation-play-state:paused" ><linearGradient id="lg-0.21258215305032713" x1="0" x2="1" y1="0" y2="0" style="animation-play-state:paused" ><stop stop-color="#ff00ff" offset="0" style="animation-play-state:paused" ></stop>

  
<stop stop-color="#00ffff" offset="1" style="animation-play-state:paused" ></stop></linearGradient>
<path fill="url(#lg-0.21258215305032713)" opacity="0.4" d="M 0 0 L 0 545.588 Q 136.6 522.299 273.2 491.397 T 546.4 464.787 T 819.6 345.703 T 1092.8 285.146 T 1366 213.427 L 1366 0 Z" style="opacity:0.4;animation-play-state:paused" ></path>
<path fill="url(#lg-0.21258215305032713)" opacity="0.4" d="M 0 0 L 0 549.121 Q 136.6 530.826 273.2 493.68 T 546.4 472.445 T 819.6 404.245 T 1092.8 334.693 T 1366 257.222 L 1366 0 Z" style="opacity:0.4;animation-play-state:paused" ></path>
<path fill="url(#lg-0.21258215305032713)" opacity="0.4" d="M 0 0 L 0 599.54 Q 136.6 543.151 273.2 508.222 T 546.4 435.628 T 819.6 397.467 T 1092.8 302.203 T 1366 226.627 L 1366 0 Z" style="opacity:0.4;animation-play-state:paused" ></path>
<path fill="url(#lg-0.21258215305032713)" opacity="0.4" d="M 0 0 L 0 565.443 Q 136.6 576.714 273.2 545.157 T 546.4 442.316 T 819.6 379.283 T 1092.8 315.186 T 1366 265.875 L 1366 0 Z" style="opacity:0.4;animation-play-state:paused" ></path>
<path fill="url(#lg-0.21258215305032713)" opacity="0.4" d="M 0 0 L 0 570.03 Q 136.6 536.625 273.2 511.307 T 546.4 484.798 T 819.6 377.474 T 1092.8 327.476 T 1366 308.922 L 1366 0 Z" style="opacity:0.4;animation-play-state:paused" ></path></g></svg>